<svg width="223" height="114" viewBox="0 0 223 114" fill="none" xmlns="http://www.w3.org/2000/svg">
<path d="M214.66 36.7H210.46C212.16 32.3 212.26 28.8 210.76 26.8C210.66 26.6 210.56 26.5 210.46 26.4L210.26 26.2L208.66 24.8L208.46 24.6C208.36 24.5 208.26 24.5 208.16 24.4C206.96 23.5 205.26 23.2 203.36 23.4C203.36 22.5 203.26 20.9 203.16 19.6C202.96 17.8 201.36 15 197.76 15H118.26C114.96 15 112.56 16.5 111.56 19.1C110.56 16.5 108.26 15 104.86 15H24.46C20.86 15 19.16 17.8 19.06 19.6C18.96 20.9 18.86 22.6 18.86 23.4C16.96 23.2 15.36 23.5 14.06 24.4C13.96 24.4 13.86 24.5 13.76 24.6L13.56 24.8L11.96 26.2L11.76 26.4C11.66 26.5 11.56 26.7 11.46 26.8C9.96 28.8 10.06 32.3 11.76 36.7H7.66C4.06 36.7 1.16 39.6 1.16 43.2V85.4C1.16 87.7 2.36 89.7 4.06 90.8V104.5C4.06 104.8 4.26 105 4.56 105H6.86C7.16 105 7.36 104.8 7.36 104.5V98.7C7.36 95.8 8.26 94.5 10.26 94C11.46 93.7 18.46 92.8 18.56 92.8C18.76 92.8 18.96 92.6 18.96 92.3V91.9H203.26V92.3C203.26 92.6 203.46 92.8 203.66 92.8C203.76 92.8 210.76 93.7 211.96 94C214.06 94.5 214.86 95.9 214.86 98.7V104.5C214.86 104.8 215.06 105 215.36 105H217.66C217.96 105 218.16 104.8 218.16 104.5V90.8C219.96 89.6 221.06 87.6 221.06 85.4V43.2C221.16 39.6 218.26 36.7 214.66 36.7ZM209.36 36.7H208.86C205.86 36.7 203.26 38.7 202.56 41.6L200.46 49.9C196.66 54 192.56 57.4 188.76 59.4C187.06 59.2 184.96 58.9 182.76 58.7L210.46 28.2C211.26 30.2 210.86 33.1 209.36 36.7ZM114.96 79.4C113.36 79.4 112.46 78.8 112.26 77.6H197.46C197.16 78.6 196.26 79.4 195.16 79.4H114.96ZM111.66 79.4H111.26C111.36 79.3 111.56 79.1 111.66 78.9C111.76 79.1 111.86 79.2 112.06 79.4H111.66ZM27.16 79.4C26.06 79.4 25.16 78.6 24.86 77.6H111.16C110.96 78.8 109.96 79.4 108.46 79.4H27.16ZM12.46 27.3C12.56 27.2 12.66 27.1 12.76 26.9L14.36 25.5C14.46 25.4 14.56 25.4 14.66 25.3C14.76 25.3 14.86 25.3 14.96 25.4L44.86 58.4C43.46 58.5 42.16 58.6 40.86 58.7L12.46 27.5C12.46 27.4 12.46 27.4 12.46 27.3ZM67.96 58.3C78.56 58.3 95.26 59.4 103.56 60.6C106.66 61.1 111.06 62.6 111.06 64.7V65.8H24.86V64.7C24.86 62.6 29.26 61 32.36 60.5C40.76 59.4 57.36 58.3 67.96 58.3ZM207.66 25.3C207.76 25.4 207.86 25.4 207.96 25.5L209.56 26.9C209.66 27 209.76 27.1 209.86 27.3C209.86 27.4 209.86 27.4 209.76 27.5L181.46 58.7C180.16 58.6 178.76 58.5 177.46 58.4L207.36 25.4C207.46 25.3 207.56 25.3 207.66 25.3ZM189.96 60.6C193.06 61.1 197.46 62.7 197.46 64.8V65.9H112.16V64.8C112.16 62.7 116.56 61.1 119.66 60.6C128.06 59.4 144.66 58.3 155.26 58.3C165.96 58.3 181.56 59.4 189.96 60.6ZM112.16 76.6V66.9H197.46V76.6H112.16ZM24.86 66.9H111.16V76.6H24.86V66.9ZM24.76 62.7C24.66 61.6 24.46 60.6 24.26 59.6L22.36 51.9C25.46 55.1 28.86 57.8 31.96 59.7C29.76 60.1 26.36 61 24.76 62.7ZM198.06 59.6C197.76 60.6 197.66 61.7 197.56 62.7C195.96 61 192.56 60 190.36 59.7C193.56 57.8 196.86 55.1 199.96 51.9L198.06 59.6ZM206.66 24.7L176.46 58C174.26 53.6 178.16 44.1 185.56 36C191.46 29.5 198.06 25.3 202.96 24.5H203.06C204.46 24.2 205.66 24.3 206.66 24.7ZM118.36 16H197.86C200.86 16 202.16 18.3 202.26 19.7C202.36 21 202.46 22.8 202.46 23.6C197.36 24.5 190.76 28.8 184.86 35.3C177.26 43.7 173.36 53.3 175.56 58.2C168.26 57.7 161.36 57.3 155.46 57.3C144.76 57.3 128.06 58.4 119.66 59.6C117.56 59.9 113.96 60.9 112.26 62.6V51.8V22C112.16 18.3 114.46 16 118.36 16ZM20.06 19.7C20.16 18.3 21.56 16 24.46 16H104.96C108.86 16 111.16 18.3 111.16 22V51.8V62.6C109.46 60.9 105.96 59.9 103.76 59.6C95.36 58.4 78.66 57.3 67.96 57.3C61.96 57.3 54.06 57.6 46.86 58.2C48.96 53.3 45.16 43.7 37.56 35.3C31.56 28.7 24.96 24.5 19.86 23.6C19.86 22.8 19.96 21 20.06 19.7ZM19.26 24.5C19.36 24.5 19.36 24.5 19.36 24.5C24.16 25.3 30.86 29.5 36.76 36C44.16 44.2 47.96 53.6 45.86 58L15.66 24.7C16.66 24.3 17.86 24.2 19.26 24.5ZM11.86 28.3L39.56 58.8C37.36 59 35.36 59.2 33.56 59.5C29.76 57.4 25.56 54 21.86 50L19.76 41.7C19.06 38.8 16.46 36.8 13.46 36.8H12.96C11.46 33.1 11.06 30.2 11.86 28.3ZM10.06 92.9C7.46 93.5 6.36 95.3 6.36 98.6V104H5.06V91.3C5.86 91.6 6.76 91.8 7.66 91.8H17.76C15.86 92.1 11.06 92.7 10.06 92.9ZM217.26 104H215.96V98.7C215.96 95.4 214.86 93.6 212.26 93C211.26 92.8 206.46 92.1 204.56 91.9H214.66C215.56 91.9 216.46 91.7 217.26 91.4V104ZM220.16 85.3C220.16 88.3 217.66 90.8 214.66 90.8H7.66C4.66 90.8 2.16 88.3 2.16 85.3V43.2C2.16 40.2 4.66 37.7 7.66 37.7H13.36C15.86 37.7 18.06 39.4 18.66 41.9L20.76 50.3V50.4L23.16 59.9C23.56 61.4 23.76 63 23.76 64.6V77.1C23.76 79 25.26 80.5 27.16 80.5H195.16C197.06 80.5 198.56 79 198.56 77.1V64.6C198.56 63 198.76 61.4 199.16 59.9L201.56 50.4V50.3L203.66 41.9C204.26 39.4 206.46 37.7 208.96 37.7H214.66C217.66 37.7 220.16 40.2 220.16 43.2V85.3Z" fill="black"/>
</svg>
